  9: 2026-06-25T06:03:51.540421Z  INFO ThreadId(01) hyperclip_tauri::commands: src-tauri\src\commands.rs:989: [AppState] Startup cleanup: resetting stuck workspace 'ws-ch-1782366709187' from downloading to error
 10: 2026-06-25T06:03:51.540426Z  INFO ThreadId(01) hyperclip_tauri::commands: src-tauri\src\commands.rs:989: [AppState] Startup cleanup: resetting stuck workspace 'ws-ch-1782366709163' from downloading to error
 11: 2026-06-25T06:03:51.540427Z  INFO ThreadId(01) hyperclip_tauri::commands: src-tauri\src\commands.rs:989: [AppState] Startup cleanup: resetting stuck workspace 'ws-ch-1782366709147' from downloading to error
 12: 2026-06-25T06:03:51.540428Z  INFO ThreadId(01) hyperclip_tauri::commands: src-tauri\src\commands.rs:989: [AppState] Startup cleanup: resetting stuck workspace 'ws-ch-1782366709127' from downloading to error
 13: 2026-06-25T06:03:51.540429Z  INFO ThreadId(01) hyperclip_tauri::commands: src-tauri\src\commands.rs:989: [AppState] Startup cleanup: resetting stuck workspace 'ws-ch-1782366709106' from downloading to error
 14: 2026-06-25T06:03:51.540429Z  INFO ThreadId(01) hyperclip_tauri::commands: src-tauri\src\commands.rs:989: [AppState] Startup cleanup: resetting stuck workspace 'ws-ch-1782366709083' from downloading to error
 15: 2026-06-25T06:03:51.540430Z  INFO ThreadId(01) hyperclip_tauri::commands: src-tauri\src\commands.rs:989: [AppState] Startup cleanup: resetting stuck workspace 'ws-ch-1782366709071' from downloading to error
 16: 2026-06-25T06:03:51.540431Z  INFO ThreadId(01) hyperclip_tauri::commands: src-tauri\src\commands.rs:989: [AppState] Startup cleanup: resetting stuck workspace 'ws-ch-1782366709058' from downloading to error
 17: 2026-06-25T06:03:51.540431Z  INFO ThreadId(01) hyperclip_tauri::commands: src-tauri\src\commands.rs:989: [AppState] Startup cleanup: resetting stuck workspace 'ws-ch-1782366709040' from downloading to error
 18: 2026-06-25T06:03:51.540432Z  INFO ThreadId(01) hyperclip_tauri::commands: src-tauri\src\commands.rs:989: [AppState] Startup cleanup: resetting stuck workspace 'ws-ch-1782366700562' from downloading to error
 19: 2026-06-25T06:03:51.540433Z  INFO ThreadId(01) hyperclip_tauri::commands: src-tauri\src\commands.rs:989: [AppState] Startup cleanup: resetting stuck workspace 'ws-ch-1782366700546' from downloading to error
 20: 2026-06-25T06:03:51.540433Z  INFO ThreadId(01) hyperclip_tauri::commands: src-tauri\src\commands.rs:989: [AppState] Startup cleanup: resetting stuck workspace 'ws-ch-1782366700525' from downloading to error
 21: 2026-06-25T06:03:51.540827Z  INFO ThreadId(01) hyperclip_tauri::commands: src-tauri\src\commands.rs:1009: [AppState] Starting cleanup of orphaned support files in downloads directory
472: 2026-06-25T06:04:56.763231Z  INFO ThreadId(109) hyperclip_ipc::youtube: crates\hyperclip_ipc\src\youtube.rs:226: [Youtube] Spawning yt-dlp: "D:\\HyperClip\\HyperClip-TestCustomer-20260616-224538\\app\\_internal\\resources\\yt-dlp/yt-dlp.exe" "--js-runtimes" "node:D:/HyperClip/HyperClip-TestCustomer-20260616-224538/app/_internal/resources/node/node.exe" "--cookies" "D:\\HyperClip\\HyperClip-TestCustomer-20260616-224538\\HyperClip-Data\\cookies_netscape.txt" "-f" "bestvideo[height<=?360]+bestaudio/best[height<=?360]/worst" "--concurrent-fragments" "32" "--no-playlist" "--no-color" "--newline" "--remux-video" "mp4" "--socket-timeout" "30" "--retries" "3" "--cache-dir" "D:\\HyperClip\\HyperClip-TestCustomer-20260616-224538\\HyperClip-Data\\.cache\\yt-dlp" "-o" "D:\\tải về\\downloads\\ZcI9xJcinb0_20260625_060456.mp4" "--ffmpeg-location" "D:/HyperClip/HyperClip-TestCustomer-20260616-224538/app/_internal/resources/ffmpeg/bin" "https://youtube.com/watch?v=ZcI9xJcinb0"
563: 2026-06-25T06:05:16.769552Z  INFO ThreadId(109) hyperclip_tauri::commands: src-tauri\src\commands.rs:325: [AppState] Auto-download complete: ws-ch-1782367496746 (23.2 MB)
595: 2026-06-25T06:05:23.299719Z  INFO ThreadId(109) hyperclip_ipc::ffmpeg: crates\hyperclip_ipc\src\ffmpeg.rs:1257: Spawning FFmpeg: D:/HyperClip/HyperClip-TestCustomer-20260616-224538/app/_internal/resources/ffmpeg/bin/ffmpeg.exe -hide_banner -y -hwaccel cuda -hwaccel_output_format cuda -c:v h264_cuvid -crop 0x0x62x62 -resize 736x512 -i D:\tải về\downloads\ZcI9xJcinb0_20260625_060456.mp4 -i D:\đã render\renders\temp\ws-ch-1782367496746_blur.jpg -i D:\HyperClip\HyperClip-TestCustomer-20260616-224538\HyperClip-Data\media/Nhật Đức Anh Bùi/thumbnails/ZcI9xJcinb0.jpg -i D:\đã render\renders\temp\ws-ch-1782367496746_bottom_bar.png -filter_complex [0:v]trim=start=6.4:duration=293.6,setpts=PTS-STARTPTS,fps=30[vid]; [1:v]scale=736:1280:force_original_aspect_ratio=increase,crop=736:1280:(ow-iw)/2:(oh-ih)/2,setsar=1,format=yuv420p,fps=30,hwupload_cuda,scale_cuda=w=736:h=1280:format=nv12[bg]; [bg][vid]overlay_cuda=0:384 [vz]; [2:v]scale=736:384:force_original_aspect_ratio=increase,crop=736:384:(ow-iw)/2:(oh-ih)/2,setsar=1,format=yuv420p,hwupload_cuda,scale_cuda=w=736:h=384:format=nv12[hd]; [vz][hd]overlay_cuda=0:0 [vh]; [3:v]format=yuv420p,hwupload_cuda,scale_cuda=w=736:h=384:format=nv12[bb]; [vh][bb]overlay_cuda=0:896,setsar=1 [vf]; [vf]setpts=0.8333333333333334*PTS[final]; [0:a]atrim=start=6.4:duration=293.6,asetpts=PTS-STARTPTS,atempo=1.2000[a] -t 244.67 -map [final] -map [a] -c:v hevc_nvenc -preset p4 -rc:v vbr -cq 18 -tune ull -bf 0 -refs 1 -g 30 -maxrate 6M -bufsize 6M -multipass disabled -c:a aac -b:a 192k D:\đã render\renders\PART 1_ZcI9xJcinb0.mp4
623: 2026-06-25T06:05:31.105859Z  INFO ThreadId(133) hyperclip_ipc::ffmpeg: crates\hyperclip_ipc\src\ffmpeg.rs:1290: [FFmpeg progress] frame=  240 fps=0.0 q=12.0 size=    4608KiB time=00:00:08.00 bitrate=4718.6kbits/s dup=0 drop=48 speed=15.7x elapsed=0:00:00.51
624: frame=  762 fps=743 q=16.0 size=   12032KiB time=00:00:25.40 bitrate=3880.6kbits/s dup=0 drop=152 speed=24.8x elapsed=0:00:01.02
625: frame= 1282 fps=831 q=12.0 size=   22784KiB time=00:00:42.73 bitrate=4367.7kbits/s dup=0 drop=256 speed=27.7x elapsed=0:00:01.54
626: frame= 1817 fps=877 q=12.0 size=   35840KiB time=00:01:00.56 bitrate=4847.6kbits/s dup=0 drop=363 speed=29.2x elapsed=0:00:02.07
627: frame= 2337 fps=904 q=13.0 size=   48640KiB time=00:01:17.90 bitrate=5115.0kbits/s dup=0 drop=467 speed=30.1x elapsed=0:00:02.58
628: frame= 2848 fps=922 q=13.0 size=   60928KiB time=00:01:34.93 bitrate=5257.6kbits/s dup=0 drop=570 speed=30.7x elapsed=0:00:03.08
629: frame= 3388 fps=937 q=12.0 size=   72448KiB time=00:01:52.93 bitrate=5255.3kbits/s dup=0 drop=678 speed=31.2x elapsed=0:00:03.61
630: frame= 3908 fps=947 q=12.0 size=   85248KiB time=00:02:10.26 bitrate=5360.9kbits/s dup=0 drop=782 speed=31.6x elapsed=0:00:04.12
631: frame= 4437 fps=956 q=12.0 size=   96256KiB time=00:02:27.90 bitrate=5331.5kbits/s dup=0 drop=887 speed=31.9x elapsed=0:00:04.64
632: frame= 4965 fps=962 q=12.0 size=  108800KiB time=00:02:45.53 bitrate=5384.4kbits/s dup=0 drop=993 speed=32.1x elapsed=0:00:05.16
633: frame= 5489 fps=968 q=15.0 size=  121344KiB time=00:03:02.96 bitrate=5433.0kbits/s dup=0 drop=1098 speed=32.3x elapsed=0:00:05.67
634: frame= 6012 fps=972 q=12.0 size=  133120KiB time=00:03:20.40 bitrate=5441.7kbits/s dup=0 drop=1202 speed=32.4x elapsed=0:00:06.18
635: frame= 6529 fps=975 q=14.0 size=  144896KiB time=00:03:37.63 bitrate=5454.1kbits/s dup=0 drop=1306 speed=32.5x elapsed=0:00:06.69
636: frame= 7051 fps=977 q=9.0 size=  157440KiB time=00:03:55.03 bitrate=5487.5kbits/s dup=0 drop=1410 speed=32.6x elapsed=0:00:07.21
638: 2026-06-25T06:05:31.106059Z  INFO ThreadId(133) hyperclip_ipc::ffmpeg: crates\hyperclip_ipc\src\ffmpeg.rs:1290: [FFmpeg progress] frame= 7341 fps=974 q=12.0 Lsize=  164350KiB time=00:04:04.67 bitrate=5502.7kbits/s dup=0 drop=1467 speed=32.5x elapsed=0:00:07.53